<svg width="40" height="30" viewBox="0 0 40 30" fill="none" xmlns="http://www.w3.org/2000/svg">
<path d="M34.6085 0H4.82055C2.1615 0 0 2.1615 0 4.82055V25.1794C0 27.8385 2.1615 30 4.82055 30H34.6003C37.2594 30 39.4209 27.8385 39.4209 25.1794V4.82871C39.429 2.16966 37.2675 0 34.6085 0ZM37.2268 25.1794C37.2268 26.6232 36.0522 27.7977 34.6085 27.7977H4.82055C3.37684 27.7977 2.20228 26.6232 2.20228 25.1794V4.82871C2.20228 3.38499 3.37684 2.21044 4.82055 2.21044H34.6003C36.044 2.21044 37.2186 3.38499 37.2186 4.82871V25.1794H37.2268Z" fill="white"/>
<path d="M24.8612 14.7471L34.5023 6.10113C34.951 5.6933 34.9917 4.99999 34.5839 4.54322C34.1761 4.09461 33.4828 4.05382 33.026 4.46165L19.7307 16.3948L17.1369 14.0783C17.1288 14.0701 17.1206 14.062 17.1206 14.0538C17.0635 13.9967 17.0064 13.9478 16.9412 13.8988L6.38651 4.4535C5.92974 4.04567 5.23643 4.08645 4.8286 4.54322C4.42077 4.99999 4.46156 5.6933 4.91833 6.10113L14.6736 14.8205L4.95911 23.9152C4.51865 24.3312 4.49418 25.0245 4.91017 25.4731C5.1304 25.7015 5.42403 25.8238 5.71767 25.8238C5.98684 25.8238 6.25601 25.7259 6.46808 25.5302L16.3294 16.305L19.0048 18.6949C19.2169 18.8825 19.4779 18.9723 19.7389 18.9723C19.9999 18.9723 20.2691 18.8744 20.473 18.6868L23.2218 16.2235L33.026 25.5383C33.2381 25.7422 33.5154 25.8401 33.7846 25.8401C34.0782 25.8401 34.3637 25.7259 34.5839 25.4975C34.9999 25.0571 34.9836 24.3556 34.5431 23.9396L24.8612 14.7471Z" fill="white"/>
</svg>
