<svg width="18" height="9" viewBox="0 0 18 9" fill="none" xmlns="http://www.w3.org/2000/svg">
<path d="M15.4011 0.0654907H2.02629C0.912 0.0654907 0 0.335512 0 0.665989V8.35536C0 8.68584 0.912 8.95612 2.02629 8.95612H15.4011C16.5154 8.95612 17.4274 8.68635 17.4274 8.35562V0.665989C17.4274 0.335512 16.5154 0.0654907 15.4011 0.0654907ZM6.57429 0.498337H10.8531C10.9886 0.498337 11.0983 0.530851 11.0983 0.57124C11.0983 0.611375 10.9886 0.643889 10.8531 0.643889H6.57429C6.43886 0.643889 6.32914 0.611375 6.32914 0.57124C6.32914 0.530851 6.43886 0.498337 6.57429 0.498337ZM8.71371 8.65587C8.154 8.65587 7.70057 8.52149 7.70057 8.35536C7.70057 8.18924 8.154 8.05511 8.71371 8.05511C9.27343 8.05511 9.72686 8.18924 9.72686 8.35536C9.72686 8.52149 9.27343 8.65587 8.71371 8.65587ZM16.0174 7.84479H1.41V1.0178H16.0174V7.84479Z" fill="white"/>
</svg>
