<svg width="10" height="6" viewBox="0 0 10 6" fill="none" xmlns="http://www.w3.org/2000/svg">
<path d="M8.8373 0H1.1627C0.523313 0 0 0.15494 0 0.344571V4.75679C0 4.94642 0.523313 5.10151 1.1627 5.10151H8.8373C9.47669 5.10151 10 4.94672 10 4.75694V0.344571C10 0.15494 9.47669 0 8.8373 0ZM3.77238 0.248371H6.22762C6.30533 0.248371 6.36829 0.267028 6.36829 0.290203C6.36829 0.313233 6.30533 0.33189 6.22762 0.33189H3.77238C3.69467 0.33189 3.63171 0.313233 3.63171 0.290203C3.63171 0.267028 3.69467 0.248371 3.77238 0.248371ZM5 4.92923C4.67883 4.92923 4.41865 4.85212 4.41865 4.75679C4.41865 4.66147 4.67883 4.58451 5 4.58451C5.32117 4.58451 5.58135 4.66147 5.58135 4.75679C5.58135 4.85212 5.32117 4.92923 5 4.92923ZM9.19093 4.46382H0.809069V0.546445H9.19093V4.46382Z" fill="#005FA3"/>
</svg>
